<?xml version="1.0" standalone="no"?>
<!DOCTYPE svg PUBLIC "-//W3C//DTD SVG 20010904//EN"
 "http://www.w3.org/TR/2001/REC-SVG-20010904/DTD/svg10.dtd">
<svg version="1.0" xmlns="http://www.w3.org/2000/svg"
 width="500.000000pt" height="500.000000pt" viewBox="0 0 500.000000 500.000000"
 preserveAspectRatio="xMidYMid meet">

<g transform="translate(0.000000,500.000000) scale(0.100000,-0.100000)"
fill="#000000" stroke="none">
<path d="M2315 4994 c-16 -2 -73 -9 -125 -15 -434 -49 -895 -244 -1255 -529
-103 -81 -304 -282 -385 -385 -284 -359 -467 -789 -531 -1255 -18 -124 -18
-496 0 -620 64 -466 247 -896 531 -1255 81 -103 282 -304 385 -385 298 -237
684 -419 1040 -493 202 -42 299 -52 525 -52 226 0 323 10 525 52 356 74 742
256 1040 493 103 81 304 282 385 385 284 359 467 789 531 1255 18 124 18 496
0 620 -64 466 -247 896 -531 1255 -81 103 -282 304 -385 385 -351 278 -770
459 -1220 526 -95 14 -467 27 -530 18z m229 -1468 l37 -28 -46 -49 c-52 -56
-65 -84 -65 -142 0 -48 22 -99 74 -176 62 -91 50 -121 -96 -243 -31 -27 -64
-65 -75 -88 -21 -46 -41 -55 -114 -48 -39 4 -57 12 -82 36 l-32 31 -45 -31
c-94 -64 -179 -87 -251 -68 -80 21 -119 76 -119 165 0 73 19 106 90 153 72 47
82 60 69 83 -14 27 -24 24 -89 -20 l-58 -40 -6 25 c-9 33 2 90 25 135 24 48
94 107 135 115 21 4 42 18 59 39 38 51 173 115 241 115 41 0 59 -5 78 -22 37
-34 66 -97 66 -144 0 -58 -31 -86 -177 -155 -140 -66 -192 -108 -222 -180 -24
-55 -20 -89 10 -89 14 0 26 15 43 53 30 68 76 106 185 151 190 79 253 157 220
273 -7 25 -28 69 -46 96 -18 27 -32 51 -31 52 54 44 165 45 222 1z m259 -60
c40 -16 95 -77 103 -114 3 -15 7 -31 8 -37 1 -5 25 -8 52 -7 91 5 157 -61 152
-151 -3 -47 -3 -48 35 -58 49 -13 103 -69 117 -120 10 -37 6 -119 -6 -119 -3
0 -22 9 -44 20 -22 11 -46 20 -54 20 -8 0 -17 13 -21 29 -11 52 -61 118 -112
148 -40 23 -59 28 -113 28 -72 -1 -168 -29 -177 -52 -3 -8 1 -22 10 -30 14
-14 20 -14 63 1 58 20 146 21 182 2 40 -21 60 -47 85 -110 21 -55 24 -58 77
-76 67 -23 100 -58 100 -106 0 -54 -25 -93 -76 -114 -24 -11 -44 -24 -44 -29
0 -16 -56 -41 -91 -41 -17 0 -47 9 -65 21 -31 19 -35 19 -63 5 -48 -25 -114
-21 -150 10 l-30 25 29 58 c16 32 35 81 42 110 10 45 10 54 -5 68 -15 15 -19
15 -31 3 -8 -8 -21 -42 -31 -75 -21 -75 -56 -130 -96 -150 -34 -18 -111 -22
-150 -7 -43 17 -79 68 -79 113 0 42 7 50 153 188 94 88 97 137 12 265 -67 102
-70 139 -16 213 52 72 155 102 234 69z m-604 -762 c34 -10 74 -15 107 -12 30
3 54 1 54 -4 0 -4 -19 -21 -42 -37 -83 -57 -93 -69 -107 -116 -7 -25 -25 -60
-38 -76 -43 -51 -139 -98 -227 -112 l-38 -6 35 34 c19 19 41 51 47 71 16 47 7
126 -19 169 l-19 33 38 6 c21 3 59 21 86 40 27 19 54 32 59 31 6 -2 34 -11 64
-21z m-651 -536 c14 -14 16 -156 3 -176 -4 -8 -27 -16 -49 -19 l-41 -6 -3 -51
c-3 -44 -6 -51 -25 -54 l-23 -3 0 160 0 161 63 0 c36 0 68 -5 75 -12z m1462
-7 c5 -11 10 -73 10 -138 0 -149 -4 -155 -94 -161 l-66 -4 0 161 0 161 70 0
c58 0 71 -3 80 -19z m458 -28 c6 -27 16 -77 23 -112 14 -75 18 -69 44 67 16
85 19 92 41 92 13 0 24 -2 24 -4 0 -3 -50 -229 -65 -293 -4 -16 -13 -23 -30
-23 -14 0 -25 2 -25 5 0 8 -60 277 -66 298 -4 13 0 17 19 17 22 0 27 -6 35
-47z m-1640 -5 c15 -15 16 -225 2 -248 -6 -10 -26 -15 -65 -15 -39 0 -59 5
-65 15 -14 23 -13 233 2 248 7 7 35 12 63 12 28 0 56 -5 63 -12z m217 -65 l40
-78 3 78 c3 69 5 77 22 77 19 0 20 -8 20 -140 0 -127 -2 -140 -18 -140 -12 0
-31 26 -59 83 l-42 82 0 -83 c-1 -81 -2 -83 -23 -80 -22 3 -23 6 -26 141 l-3
137 24 0 c18 0 30 -15 62 -77z m355 57 c0 -15 -7 -20 -25 -20 l-25 0 0 -120 0
-120 -25 0 -25 0 0 120 0 120 -25 0 c-18 0 -25 5 -25 20 0 18 7 20 75 20 68 0
75 -2 75 -20z m168 -117 c-3 -135 -4 -138 -25 -141 -23 -3 -23 -3 -23 137 l0
141 25 0 26 0 -3 -137z m732 117 c0 -18 -7 -20 -55 -20 l-55 0 0 -35 c0 -34 1
-35 40 -35 36 0 40 -2 40 -25 0 -22 -4 -25 -40 -25 -39 0 -40 -1 -40 -35 l0
-35 55 0 c52 0 55 -1 55 -25 0 -25 -1 -25 -80 -25 l-80 0 0 140 0 140 80 0
c73 0 80 -2 80 -20z"/>
<path d="M1460 2081 c0 -59 1 -61 25 -61 25 0 26 2 23 58 -3 50 -6 57 -25 60
-22 3 -23 0 -23 -57z"/>
<path d="M2910 2025 l0 -116 28 3 27 3 0 110 0 110 -27 3 -28 3 0 -116z"/>
<path d="M1735 2078 c-3 -13 -5 -55 -3 -93 l3 -70 30 0 30 0 0 90 0 90 -27 3
c-22 3 -29 -2 -33 -20z"/>
</g>
</svg>
